<svg xmlns="http://www.w3.org/2000/svg" xmlns:xlink="http://www.w3.org/1999/xlink" width="680" zoomAndPan="magnify" viewBox="0 0 510 112.499997" height="150" preserveAspectRatio="xMidYMid meet" version="1.0"><defs><g/><clipPath id="id1"><path d="M 4.863281 16 L 28 16 L 28 95 L 4.863281 95 Z M 4.863281 16 " clip-rule="nonzero"/></clipPath></defs><g fill="rgb(0%, 0%, 0%)" fill-opacity="1"><g transform="translate(108.571414, 99.396761)"><g><path d="M 51.734375 -65.203125 L 19.125 -65.203125 L 19.125 -51.625 L 43.125 -51.625 L 43.125 -32.609375 L 19.125 -32.609375 L 19.125 0 L 0.109375 0 L 0.109375 -84.21875 L 51.734375 -84.21875 Z M 51.734375 -65.203125 "/></g></g></g><g fill="rgb(0%, 0%, 0%)" fill-opacity="1"><g transform="translate(167.666256, 99.396761)"><g><path d="M 65.203125 -33.515625 C 65.128906 -29.054688 64.300781 -24.828125 62.71875 -20.828125 C 61.132812 -16.828125 58.832031 -13.242188 55.8125 -10.078125 C 52.71875 -6.753906 49.1875 -4.222656 45.21875 -2.484375 C 41.257812 -0.753906 37.054688 0.109375 32.609375 0.109375 L 32.484375 0.109375 C 28.109375 0.109375 23.9375 -0.753906 19.96875 -2.484375 C 16.007812 -4.222656 12.445312 -6.71875 9.28125 -9.96875 C 6.34375 -13.132812 4.0625 -16.71875 2.4375 -20.71875 C 0.8125 -24.71875 -0.0351562 -28.984375 -0.109375 -33.515625 L -0.109375 -53.203125 C 0.265625 -57.203125 1.265625 -60.972656 2.890625 -64.515625 C 4.515625 -68.066406 6.644531 -71.273438 9.28125 -74.140625 C 12.445312 -77.390625 15.992188 -79.878906 19.921875 -81.609375 C 23.847656 -83.347656 28.035156 -84.21875 32.484375 -84.21875 L 32.609375 -84.21875 C 37.054688 -84.21875 41.257812 -83.347656 45.21875 -81.609375 C 49.1875 -79.878906 52.71875 -77.390625 55.8125 -74.140625 C 58.53125 -71.273438 60.679688 -68.066406 62.265625 -64.515625 C 63.847656 -60.972656 64.828125 -57.203125 65.203125 -53.203125 Z M 65.203125 -33.515625 "/></g></g></g><g fill="rgb(0%, 0%, 0%)" fill-opacity="1"><g transform="translate(240.006497, 99.396761)"><g><path d="M 65.203125 -33.515625 C 65.128906 -29.054688 64.300781 -24.828125 62.71875 -20.828125 C 61.132812 -16.828125 58.832031 -13.242188 55.8125 -10.078125 C 52.71875 -6.753906 49.1875 -4.222656 45.21875 -2.484375 C 41.257812 -0.753906 37.054688 0.109375 32.609375 0.109375 L 32.484375 0.109375 C 28.109375 0.109375 23.9375 -0.753906 19.96875 -2.484375 C 16.007812 -4.222656 12.445312 -6.71875 9.28125 -9.96875 C 6.34375 -13.132812 4.0625 -16.71875 2.4375 -20.71875 C 0.8125 -24.71875 -0.0351562 -28.984375 -0.109375 -33.515625 L -0.109375 -53.203125 C 0.265625 -57.203125 1.265625 -60.972656 2.890625 -64.515625 C 4.515625 -68.066406 6.644531 -71.273438 9.28125 -74.140625 C 12.445312 -77.390625 15.992188 -79.878906 19.921875 -81.609375 C 23.847656 -83.347656 28.035156 -84.21875 32.484375 -84.21875 L 32.609375 -84.21875 C 37.054688 -84.21875 41.257812 -83.347656 45.21875 -81.609375 C 49.1875 -79.878906 52.71875 -77.390625 55.8125 -74.140625 C 58.53125 -71.273438 60.679688 -68.066406 62.265625 -64.515625 C 63.847656 -60.972656 64.828125 -57.203125 65.203125 -53.203125 Z M 65.203125 -33.515625 "/></g></g></g><g fill="rgb(0%, 0%, 0%)" fill-opacity="1"><g transform="translate(312.346738, 99.396761)"><g><path d="M 59.546875 -42.109375 C 59.546875 -36.453125 58.488281 -31.078125 56.375 -25.984375 C 54.257812 -20.890625 51.164062 -16.300781 47.09375 -12.21875 C 43.320312 -8.519531 39.078125 -5.632812 34.359375 -3.5625 C 29.640625 -1.488281 24.675781 -0.300781 19.46875 0 L 0 0 L 0 -84.21875 L 16.984375 -84.21875 C 22.640625 -84.21875 28.050781 -83.179688 33.21875 -81.109375 C 38.394531 -79.035156 43.019531 -76 47.09375 -72 C 51.164062 -67.925781 54.257812 -63.34375 56.375 -58.25 C 58.488281 -53.15625 59.546875 -47.773438 59.546875 -42.109375 Z M 59.546875 -42.109375 "/></g></g></g><g fill="rgb(0%, 0%, 0%)" fill-opacity="1"><g transform="translate(378.120887, 99.396761)"><g><path d="M 54.90625 -84.21875 L 54.90625 -65.203125 L 22.078125 -19.015625 L 54.90625 -19.015625 L 54.90625 0 L 0 0 L 0 -19.015625 L 32.71875 -65.203125 L 0 -65.203125 L 0 -84.21875 Z M 54.90625 -84.21875 "/></g></g></g><g fill="rgb(0%, 0%, 0%)" fill-opacity="1"><g transform="translate(440.951626, 99.396761)"><g><path d="M 63.625 -84.21875 L 40.984375 -42.109375 L 40.984375 0 L 21.96875 0 L 21.96875 -42.109375 L -0.796875 -84.21875 L 18.21875 -84.21875 L 31.46875 -59.765625 L 44.609375 -84.21875 Z M 63.625 -84.21875 "/></g></g></g><g clip-path="url(#id1)"><path fill="rgb(0%, 0%, 0%)" d="M 27.945312 34.203125 L 27.945312 17.824219 C 27.945312 16.90625 27.199219 16.164062 26.277344 16.164062 C 25.351562 16.164062 24.648438 16.90625 24.648438 17.824219 L 24.648438 34.203125 C 24.648438 36.914062 22.449219 39.097656 19.722656 39.097656 L 13.128906 39.097656 C 10.402344 39.097656 8.203125 36.914062 8.203125 34.203125 L 8.203125 17.824219 C 8.160156 16.90625 7.410156 16.164062 6.53125 16.164062 C 5.652344 16.164062 4.863281 16.90625 4.863281 17.824219 L 4.863281 34.203125 C 4.863281 38.09375 7.632812 41.457031 11.457031 42.242188 L 11.457031 91.5625 C 11.457031 93.351562 12.953125 94.835938 14.753906 94.835938 L 18.054688 94.835938 C 19.855469 94.835938 21.351562 93.351562 21.351562 91.5625 L 21.351562 42.199219 C 25.175781 41.410156 27.945312 38.09375 27.945312 34.203125 Z M 14.753906 91.515625 L 14.753906 42.371094 L 18.054688 42.371094 L 18.054688 91.515625 Z M 14.753906 91.515625 " fill-opacity="1" fill-rule="nonzero"/></g><path fill="rgb(0%, 0%, 0%)" d="M 13.128906 32.542969 C 14.050781 32.542969 14.800781 31.800781 14.800781 30.882812 L 14.800781 17.777344 C 14.800781 16.863281 14.050781 16.117188 13.128906 16.117188 C 12.203125 16.117188 11.457031 16.90625 11.457031 17.824219 L 11.457031 30.929688 C 11.457031 31.800781 12.203125 32.542969 13.128906 32.542969 Z M 13.128906 32.542969 " fill-opacity="1" fill-rule="nonzero"/><path fill="rgb(0%, 0%, 0%)" d="M 19.722656 32.542969 C 20.648438 32.542969 21.394531 31.800781 21.394531 30.882812 L 21.394531 17.777344 C 21.394531 16.863281 20.648438 16.117188 19.722656 16.117188 C 18.800781 16.117188 18.054688 16.90625 18.054688 17.824219 L 18.054688 30.929688 C 18.054688 31.800781 18.800781 32.542969 19.722656 32.542969 Z M 19.722656 32.542969 " fill-opacity="1" fill-rule="nonzero"/><path fill="rgb(0%, 0%, 0%)" d="M 83.085938 16.335938 C 82.515625 16.074219 81.855469 16.117188 81.371094 16.511719 C 80.800781 16.949219 67.519531 27.347656 67.519531 71.859375 C 67.519531 72.777344 68.269531 73.476562 69.148438 73.519531 L 74.074219 73.519531 L 74.074219 91.515625 C 74.074219 93.308594 75.566406 94.792969 77.371094 94.792969 L 80.667969 94.792969 C 82.472656 94.792969 83.964844 93.308594 83.964844 91.515625 L 83.964844 17.824219 C 84.011719 17.167969 83.65625 16.597656 83.085938 16.335938 Z M 80.710938 91.515625 L 77.414062 91.515625 L 77.414062 71.859375 C 77.414062 70.941406 76.667969 70.242188 75.789062 70.199219 L 70.820312 70.199219 C 71.039062 41.238281 77.105469 27.78125 80.710938 22.320312 Z M 80.710938 91.515625 " fill-opacity="1" fill-rule="nonzero"/><path fill="rgb(0%, 0%, 0%)" d="M 31.816406 21.667969 C 44.917969 16.863281 59.648438 19.917969 69.675781 29.574219 C 70.335938 30.140625 71.347656 30.140625 72.003906 29.53125 C 72.621094 28.875 72.621094 27.828125 71.960938 27.214844 C 61.011719 16.730469 44.964844 13.367188 30.671875 18.609375 C 29.835938 18.914062 29.398438 19.875 29.707031 20.707031 C 30.011719 21.535156 30.980469 22.015625 31.816406 21.667969 Z M 31.816406 21.667969 " fill-opacity="1" fill-rule="nonzero"/><path fill="rgb(0%, 0%, 0%)" d="M 69.675781 81.382812 C 57.804688 92.828125 39.644531 94.792969 25.527344 86.230469 C 24.738281 85.75 23.726562 86.011719 23.242188 86.757812 C 22.757812 87.542969 23.023438 88.546875 23.769531 89.027344 C 39.160156 98.375 58.992188 96.191406 71.960938 83.742188 C 72.621094 83.128906 72.621094 82.082031 72.003906 81.425781 C 71.390625 80.769531 70.335938 80.726562 69.675781 81.382812 Z M 69.675781 81.382812 " fill-opacity="1" fill-rule="nonzero"/><path fill="rgb(0%, 0%, 0%)" d="M 62.992188 71.730469 C 53.976562 81.90625 38.324219 82.867188 28.078125 73.914062 C 27.507812 73.433594 26.980469 72.90625 26.496094 72.382812 C 25.878906 71.730469 24.824219 71.683594 24.164062 72.339844 C 23.503906 72.953125 23.460938 74 24.121094 74.65625 C 34.761719 85.839844 52.527344 86.320312 63.738281 75.746094 C 64.355469 75.179688 64.925781 74.566406 65.5 73.957031 C 66.113281 73.257812 66.027344 72.253906 65.367188 71.640625 C 64.617188 70.984375 63.605469 71.074219 62.992188 71.730469 Z M 62.992188 71.730469 " fill-opacity="1" fill-rule="nonzero"/><path fill="rgb(0%, 0%, 0%)" d="M 68.136719 43.769531 C 68.929688 43.335938 69.191406 42.328125 68.75 41.585938 C 68.75 41.585938 68.75 41.542969 68.75 41.542969 C 61.011719 28.21875 43.863281 23.675781 30.453125 31.363281 C 29.660156 31.800781 29.398438 32.804688 29.835938 33.59375 C 30.277344 34.378906 31.289062 34.640625 32.078125 34.203125 C 43.90625 27.433594 59.035156 31.453125 65.851562 43.203125 C 66.332031 43.945312 67.300781 44.207031 68.136719 43.769531 Z M 68.136719 43.769531 " fill-opacity="1" fill-rule="nonzero"/></svg>